<svg xmlns="http://www.w3.org/2000/svg" width="1600" height="900" viewBox="0 0 1600 900">
  <defs>
    <linearGradient id="bg" x1="0" x2="1" y1="0" y2="1">
      <stop offset="0" stop-color="#050A14"/>
      <stop offset="0.55" stop-color="#071B33"/>
      <stop offset="1" stop-color="#050A14"/>
    </linearGradient>
    <pattern id="grid" width="80" height="80" patternUnits="userSpaceOnUse">
      <path d="M 80 0 L 0 0 0 80" fill="none" stroke="#5C7FA6" stroke-opacity="0.16" stroke-width="1"/>
    </pattern>
  </defs>
  <rect width="1600" height="900" fill="url(#bg)"/>
  <rect width="1600" height="900" fill="url(#grid)" opacity="0.85"/>
  <rect x="76" y="74" width="1448" height="752" fill="#050A14" fill-opacity="0.42" stroke="#5C7FA6" stroke-opacity="0.7" stroke-width="2"/>
  <text x="120" y="144" font-size="32" fill="#FFD84A" font-family="Inter, Arial, sans-serif" font-weight="800">ENERGY</text>
  <text x="120" y="184" font-size="24" fill="#AAB4C2" font-family="Inter, Arial, sans-serif">FERC</text>
  <text x="1160" y="144" font-size="24" fill="#F5F7FA" fill-opacity="0.62" font-family="Inter, Arial, sans-serif" font-weight="700">SYNTHPOST CONTEXT</text>
  <line x1="120" y1="203" x2="540" y2="203" stroke="#1F7BFF" stroke-width="4"/>
  <text x="120" y="245" font-size="64" fill="#F5F7FA" font-family="Georgia, serif" font-weight="700">AI LOAD GROWTH ADDS PRESSURE TO</text>
<text x="120" y="323" font-size="64" fill="#F5F7FA" font-family="Georgia, serif" font-weight="700">UTILITIES</text>
  <line x1="120" y1="462" x2="980" y2="462" stroke="#5C7FA6" stroke-opacity="0.55" stroke-width="2"/>
  <text x="122" y="520" font-size="30" fill="#AAB4C2" font-family="Inter, Arial, sans-serif">The order comes as AI data centers and other large loads</text>
<text x="122" y="562" font-size="30" fill="#AAB4C2" font-family="Inter, Arial, sans-serif">increase pressure on power planning, transmission queues,</text>
<text x="122" y="604" font-size="30" fill="#AAB4C2" font-family="Inter, Arial, sans-serif">and local utility systems. The Federal Energy Regulatory</text>
<text x="122" y="646" font-size="30" fill="#AAB4C2" font-family="Inter, Arial, sans-serif">Commission launched a fast-track proceeding on June 18 to...</text>
  <rect x="120" y="642" width="120" height="52" rx="0" fill="#071B33" stroke="#1F7BFF" stroke-width="2"/><text x="137" y="676" font-size="22" fill="#F5F7FA" font-family="Inter, Arial, sans-serif">LOAD</text><rect x="258" y="642" width="120" height="52" rx="0" fill="#071B33" stroke="#1F7BFF" stroke-width="2"/><text x="275" y="676" font-size="22" fill="#F5F7FA" font-family="Inter, Arial, sans-serif">GROWTH</text><rect x="396" y="642" width="120" height="52" rx="0" fill="#071B33" stroke="#1F7BFF" stroke-width="2"/><text x="413" y="676" font-size="22" fill="#F5F7FA" font-family="Inter, Arial, sans-serif">ADDS</text><rect x="534" y="642" width="138" height="52" rx="0" fill="#071B33" stroke="#1F7BFF" stroke-width="2"/><text x="551" y="676" font-size="22" fill="#F5F7FA" font-family="Inter, Arial, sans-serif">PRESSURE</text><rect x="690" y="642" width="151" height="52" rx="0" fill="#071B33" stroke="#1F7BFF" stroke-width="2"/><text x="707" y="676" font-size="22" fill="#F5F7FA" font-family="Inter, Arial, sans-serif">UTILITIES</text>
</svg>
